<?xml version="1.0" encoding="UTF-8" standalone="no"?>
<svg
   xmlns:dc="http://purl.org/dc/elements/1.1/"
   xmlns:cc="http://creativecommons.org/ns#"
   xmlns:rdf="http://www.w3.org/1999/02/22-rdf-syntax-ns#"
   xmlns:svg="http://www.w3.org/2000/svg"
   xmlns="http://www.w3.org/2000/svg"
   xmlns:sodipodi="http://sodipodi.sourceforge.net/DTD/sodipodi-0.dtd"
   xmlns:inkscape="http://www.inkscape.org/namespaces/inkscape"
   width="210mm"
   height="297mm"
   viewBox="0 0 210 297"
   version="1.1"
   id="svg12885"
   inkscape:version="1.0.1 (3bc2e813f5, 2020-09-07)"
   sodipodi:docname="funni_forts_logo_template.svg">
  <defs
     id="defs12879" />
  <sodipodi:namedview
     id="base"
     pagecolor="#ffffff"
     bordercolor="#666666"
     borderopacity="1.0"
     showgrid="false"/>
  <metadata
     id="metadata12882">
    <rdf:RDF>
      <cc:Work
         rdf:about="">
        <dc:format>image/svg+xml</dc:format>
        <dc:type
           rdf:resource="http://purl.org/dc/dcmitype/StillImage" />
        <dc:title></dc:title>
      </cc:Work>
    </rdf:RDF>
  </metadata>
  <g
     id="layer1">
    <path
       id="path12867"
       style="fill:#134978;fill-opacity:1;fill-rule:evenodd;stroke:#ffffff;stroke-width:3.90015;stroke-linecap:round;stroke-linejoin:miter;stroke-miterlimit:4;stroke-dasharray:none;stroke-opacity:1;paint-order:markers fill stroke"
       d="m 194.37638,145.20346 c 0,19.2137 -5.34165,35.54008 -14.96176,50.66299 l -37.39581,-11.35864 11.35646,37.47841 c -15.41964,9.92967 -31.98474,16.60657 -51.72887,16.60657 -19.885677,0 -37.258117,-6.53357 -52.745614,-16.59557 L 60.212392,184.6649 23.672273,196.18806 C 14.015497,181.04486 8.1960828,164.68451 8.1960828,145.43169 c 0,-19.93409 5.7655922,-37.1104 16.0604332,-52.58042 l 36.57678,11.22202 -10.827597,-36.433451 c 15.532349,-10.148503 32.757753,-15.36979 52.736651,-15.36979 18.6942,0 34.57951,6.080646 49.47379,15.058363 l -10.86542,36.720068 37.37514,-10.921899 c 10.1829,15.415189 15.65052,32.261579 15.65052,52.076879 z"
       sodipodi:nodetypes="ccccscccscccscccc"
      />
    <path
       id="path12869"
       style="fill:#134978;fill-opacity:1;fill-rule:evenodd;stroke:#ffffff;stroke-width:1.70756;stroke-linecap:round;stroke-linejoin:round;stroke-miterlimit:4;stroke-dasharray:none;stroke-opacity:1;paint-order:markers fill stroke"
       d="m 124.94629,104.46584 -12.8818,9.10326 1.37402,13.9125 8.93134,5.83981 z"
       sodipodi:nodetypes="ccccc"
       />
    <path
       id="path12871"
       style="fill:#ffffff;fill-opacity:1;fill-rule:evenodd;stroke:#ffffff;stroke-width:1.70756;stroke-linecap:round;stroke-linejoin:round;stroke-miterlimit:4;stroke-dasharray:none;stroke-opacity:1;paint-order:markers fill stroke"
       d="m 73.301687,104.46584 12.881807,9.10326 -1.374023,13.9125 -8.931344,5.83981 z"
       sodipodi:nodetypes="ccccc"
       />
    <path
       id="path12873"
       style="fill:#ffffff;fill-opacity:1;fill-rule:evenodd;stroke:#ffffff;stroke-width:1.70757;stroke-linecap:round;stroke-linejoin:round;stroke-miterlimit:4;stroke-dasharray:none;stroke-opacity:1;paint-order:markers fill stroke"
       d="m 99.178779,75.714087 15.576031,14.685392 -0.95398,31.025461 9.20319,4.45148 2.53978,-21.15161 10.0031,9.67873 -8.89897,83.956 -27.420789,16.75454 z"
       sodipodi:nodetypes="ccccccccc"
      />
    <path
       id="path12875"
       style="fill:#134978;fill-opacity:1;fill-rule:evenodd;stroke:#ffffff;stroke-width:1.70757;stroke-linecap:round;stroke-linejoin:round;stroke-miterlimit:4;stroke-dasharray:none;stroke-opacity:1;paint-order:markers fill stroke"
       d="m 99.069185,75.714087 -15.576015,14.685392 0.953977,31.025461 -9.203185,4.45148 -2.539778,-21.15161 -10.003106,9.67873 8.898974,83.956 27.420771,16.75454 z"
       sodipodi:nodetypes="ccccccccc"
      />
    <path
       id="path12877"
       style="fill:#ffffff;fill-opacity:1;fill-rule:evenodd;stroke:#ffffff;stroke-width:1.07023;stroke-linecap:round;stroke-linejoin:round;stroke-miterlimit:4;stroke-dasharray:none;stroke-opacity:1;paint-order:markers fill stroke"
       d="m 77.802461,190.9188 c 2.752336,-6.04114 6.516761,-3.51162 9.270657,2.19231 l 0.105304,13.84308 -9.166133,-5.84617 z"
       sodipodi:nodetypes="ccccc"
	/>
  </g>
</svg>
